<svg width="185" height="40" viewBox="0 0 185 40" fill="none" xmlns="http://www.w3.org/2000/svg">
<path d="M60.9922 28.2867C59.8659 28.2867 58.873 28.0914 58.0137 27.7008C57.1608 27.3102 56.4967 26.7438 56.0215 26.0016C55.5462 25.2594 55.3086 24.3577 55.3086 23.2965V15.8746L53.7949 15.5817V13.8629H59.6836V15.5817L58.1602 15.8746V23.2965C58.1602 23.9215 58.2741 24.4423 58.502 24.859C58.7298 25.2757 59.0553 25.5882 59.4785 25.7965C59.9017 25.9983 60.4062 26.0992 60.9922 26.0992C61.5911 26.0992 62.1022 25.9983 62.5254 25.7965C62.9551 25.5882 63.2839 25.2757 63.5117 24.859C63.7396 24.4423 63.8535 23.9215 63.8535 23.2965V15.8746L62.3398 15.5817V13.8629H68.2285V15.5817L66.7051 15.8746V23.2965C66.7051 24.3577 66.4642 25.2627 65.9824 26.0114C65.5072 26.7535 64.8398 27.3199 63.9805 27.7106C63.1276 28.0947 62.1315 28.2867 60.9922 28.2867ZM69.4395 28.0817V26.3727L70.8066 26.0797V19.527L69.293 19.234V17.5153H73.4629L73.5703 18.8239L73.5898 19.0582C73.8503 18.4853 74.1725 18.0524 74.5566 17.7594C74.9408 17.4664 75.3997 17.3199 75.9336 17.3199C76.1029 17.3199 76.2884 17.3362 76.4902 17.3688C76.6921 17.3948 76.8711 17.4306 77.0273 17.4762L76.7246 20.1031L75.3086 20.025C74.9049 20.0055 74.5762 20.0739 74.3223 20.2301C74.0749 20.3864 73.8535 20.611 73.6582 20.9039V26.0797L75.0254 26.3727V28.0817H69.4395ZM84.0684 28.2867C83.4108 28.2867 82.8509 28.1598 82.3887 27.9059C81.9264 27.6455 81.5391 27.2711 81.2266 26.7828L81.0215 28.0817H78.5605V14.859L77.0469 14.566V12.8473H81.4023V18.6383C81.7083 18.2151 82.0827 17.8896 82.5254 17.6617C82.9746 17.4339 83.4954 17.3199 84.0879 17.3199C84.9408 17.3199 85.6634 17.5511 86.2559 18.0133C86.8548 18.469 87.3105 19.1136 87.623 19.9469C87.9355 20.7802 88.0918 21.7601 88.0918 22.8864V23.0914C88.0918 24.1396 87.9355 25.0543 87.623 25.8356C87.3105 26.6103 86.8548 27.2125 86.2559 27.6422C85.6569 28.0719 84.9277 28.2867 84.0684 28.2867ZM83.1992 26.0699C83.9284 26.0699 84.4525 25.8128 84.7715 25.2985C85.0905 24.7776 85.25 24.042 85.25 23.0914V22.8864C85.25 22.1962 85.1784 21.6038 85.0352 21.109C84.8984 20.6077 84.6803 20.2203 84.3809 19.9469C84.0879 19.6735 83.7038 19.5367 83.2285 19.5367C82.7988 19.5367 82.431 19.6377 82.125 19.8395C81.819 20.0413 81.5781 20.3147 81.4023 20.6598V25.0739C81.5977 25.3994 81.8451 25.6468 82.1445 25.816C82.4505 25.9853 82.8021 26.0699 83.1992 26.0699ZM92.9551 28.2867C91.9069 28.2867 91.0736 28.0068 90.4551 27.4469C89.8366 26.8805 89.5273 26.1123 89.5273 25.1422C89.5273 24.4781 89.7064 23.8955 90.0645 23.3942C90.429 22.8929 90.9629 22.499 91.666 22.2125C92.3757 21.9261 93.248 21.7828 94.2832 21.7828H95.6797V21.0016C95.6797 20.4938 95.5299 20.0836 95.2305 19.7711C94.9375 19.4521 94.4948 19.2926 93.9023 19.2926C93.5964 19.2926 93.3229 19.3317 93.082 19.4098C92.8411 19.4814 92.6198 19.5856 92.418 19.7223L92.1934 21.1188H90.1426L90.1035 18.3746C90.6569 18.0621 91.2559 17.8082 91.9004 17.6129C92.5449 17.4176 93.2643 17.3199 94.0586 17.3199C95.4388 17.3199 96.5293 17.6422 97.3301 18.2867C98.1309 18.9248 98.5312 19.8395 98.5312 21.0309V25.3864C98.5312 25.5296 98.5312 25.6728 98.5312 25.816C98.5378 25.9528 98.5508 26.0862 98.5703 26.2164L99.6738 26.3727V28.0817H96.1387C96.0671 27.8994 95.9954 27.7041 95.9238 27.4957C95.8522 27.2874 95.8001 27.0791 95.7676 26.8707C95.429 27.3004 95.0286 27.6455 94.5664 27.9059C94.1107 28.1598 93.5736 28.2867 92.9551 28.2867ZM93.7168 26.1774C94.1139 26.1774 94.4915 26.0895 94.8496 25.9137C95.2077 25.7314 95.4844 25.4938 95.6797 25.2008V23.5309H94.2734C93.6484 23.5309 93.1732 23.6741 92.8477 23.9606C92.5286 24.247 92.3691 24.5921 92.3691 24.9957C92.3691 25.3733 92.4863 25.6663 92.7207 25.8746C92.9616 26.0765 93.2936 26.1774 93.7168 26.1774ZM100.582 28.0817V26.3727L101.949 26.0797V19.527L100.436 19.234V17.5153H104.605L104.732 19.0289C105.084 18.4886 105.517 18.0686 106.031 17.7692C106.552 17.4697 107.145 17.3199 107.809 17.3199C108.857 17.3199 109.677 17.6552 110.27 18.3258C110.862 18.9964 111.158 20.0478 111.158 21.4801V26.0797L112.525 26.3727V28.0817H107.076V26.3727L108.297 26.0797V21.4899C108.297 20.7802 108.157 20.2789 107.877 19.986C107.597 19.6865 107.18 19.5367 106.627 19.5367C106.217 19.5367 105.859 19.6246 105.553 19.8004C105.253 19.9697 105.003 20.2138 104.801 20.5328V26.0797L105.953 26.3727V28.0817H100.582ZM118.297 28.0817V26.3727L119.811 26.0797V15.8746L118.297 15.5817V13.8629H119.811H125.064C126.152 13.8629 127.089 14.055 127.877 14.4391C128.665 14.8167 129.27 15.3473 129.693 16.0309C130.117 16.708 130.328 17.499 130.328 18.4039C130.328 19.3089 130.117 20.1031 129.693 20.7867C129.27 21.4638 128.665 21.9912 127.877 22.3688C127.089 22.7399 126.152 22.9254 125.064 22.9254H122.662V26.0797L124.186 26.3727V28.0817H118.297ZM122.662 20.7281H125.064C125.859 20.7281 126.458 20.5133 126.861 20.0836C127.271 19.6474 127.477 19.094 127.477 18.4235C127.477 17.7399 127.271 17.1767 126.861 16.734C126.458 16.2848 125.859 16.0602 125.064 16.0602H122.662V20.7281ZM131.529 28.0817V26.3727L132.896 26.0797V19.527L131.383 19.234V17.5153H135.553L135.66 18.8239L135.68 19.0582C135.94 18.4853 136.262 18.0524 136.646 17.7594C137.031 17.4664 137.49 17.3199 138.023 17.3199C138.193 17.3199 138.378 17.3362 138.58 17.3688C138.782 17.3948 138.961 17.4306 139.117 17.4762L138.814 20.1031L137.398 20.025C136.995 20.0055 136.666 20.0739 136.412 20.2301C136.165 20.3864 135.943 20.611 135.748 20.9039V26.0797L137.115 26.3727V28.0817H131.529ZM144.811 28.2867C143.769 28.2867 142.874 28.0589 142.125 27.6031C141.376 27.1474 140.803 26.5159 140.406 25.7086C140.009 24.8948 139.811 23.9606 139.811 22.9059V22.7008C139.811 21.6526 140.009 20.7249 140.406 19.9176C140.803 19.1038 141.373 18.469 142.115 18.0133C142.864 17.5511 143.756 17.3199 144.791 17.3199C145.839 17.3199 146.734 17.5511 147.477 18.0133C148.219 18.469 148.788 19.1005 149.186 19.9078C149.583 20.7151 149.781 21.6461 149.781 22.7008V22.9059C149.781 23.9606 149.583 24.8948 149.186 25.7086C148.788 26.5159 148.219 27.1474 147.477 27.6031C146.734 28.0589 145.846 28.2867 144.811 28.2867ZM144.811 26.0992C145.305 26.0992 145.709 25.9658 146.021 25.6989C146.334 25.4319 146.565 25.0608 146.715 24.5856C146.865 24.1038 146.939 23.5439 146.939 22.9059V22.7008C146.939 22.0758 146.865 21.5257 146.715 21.0504C146.565 20.5686 146.331 20.1943 146.012 19.9274C145.699 19.6539 145.292 19.5172 144.791 19.5172C144.303 19.5172 143.899 19.6539 143.58 19.9274C143.261 20.1943 143.027 20.5686 142.877 21.0504C142.734 21.5257 142.662 22.0758 142.662 22.7008V22.9059C142.662 23.5439 142.734 24.1038 142.877 24.5856C143.027 25.0673 143.261 25.4417 143.58 25.7086C143.899 25.969 144.309 26.0992 144.811 26.0992ZM151.471 32.3492C151.204 32.3492 150.96 32.3362 150.738 32.3102C150.523 32.2841 150.299 32.2418 150.064 32.1832L150.211 30.025C150.354 30.0641 150.504 30.0934 150.66 30.1129C150.823 30.139 150.992 30.152 151.168 30.152C151.539 30.152 151.829 30.0055 152.037 29.7125C152.245 29.4196 152.35 29.0061 152.35 28.4723V19.527L150.826 19.234V17.5153H155.191V28.4723C155.191 29.7158 154.863 30.6728 154.205 31.3434C153.554 32.014 152.643 32.3492 151.471 32.3492ZM152.213 15.2789V12.8473H155.162V15.2789H152.213ZM161.979 28.2867C160.969 28.2867 160.087 28.0654 159.332 27.6227C158.577 27.1735 157.991 26.5582 157.574 25.777C157.164 24.9957 156.959 24.1038 156.959 23.1012V22.7106C156.959 21.6624 157.154 20.7347 157.545 19.9274C157.936 19.1136 158.486 18.4755 159.195 18.0133C159.911 17.5446 160.755 17.3134 161.725 17.3199C162.682 17.3199 163.486 17.5087 164.137 17.8864C164.788 18.264 165.283 18.8076 165.621 19.5172C165.96 20.2268 166.129 21.0862 166.129 22.0953V23.6481H159.918L159.898 23.7067C159.938 24.1689 160.051 24.5823 160.24 24.9469C160.436 25.305 160.709 25.5882 161.061 25.7965C161.412 25.9983 161.839 26.0992 162.34 26.0992C162.861 26.0992 163.346 26.0341 163.795 25.9039C164.251 25.7672 164.693 25.5686 165.123 25.3082L165.895 27.066C165.458 27.4176 164.908 27.7106 164.244 27.9449C163.587 28.1728 162.831 28.2867 161.979 28.2867ZM159.938 21.7633H163.463V21.5094C163.463 21.0797 163.404 20.7119 163.287 20.4059C163.176 20.0934 162.994 19.8525 162.74 19.6832C162.493 19.514 162.171 19.4293 161.773 19.4293C161.396 19.4293 161.077 19.5302 160.816 19.7321C160.556 19.9274 160.351 20.1976 160.201 20.5426C160.058 20.8877 159.96 21.2783 159.908 21.7145L159.938 21.7633ZM172.418 28.2867C171.402 28.2867 170.523 28.0589 169.781 27.6031C169.046 27.1474 168.479 26.5192 168.082 25.7184C167.685 24.9111 167.486 23.9899 167.486 22.9547V22.6617C167.486 21.6201 167.688 20.6989 168.092 19.8981C168.495 19.0973 169.065 18.469 169.801 18.0133C170.536 17.5511 171.402 17.3199 172.398 17.3199C173.349 17.3199 174.166 17.4697 174.85 17.7692C175.54 18.0621 176.1 18.4039 176.529 18.7946L176.51 21.8219H174.361L173.98 19.9371C173.824 19.7809 173.626 19.6539 173.385 19.5563C173.144 19.4586 172.9 19.4098 172.652 19.4098C172.132 19.4098 171.699 19.54 171.354 19.8004C171.015 20.0608 170.761 20.4319 170.592 20.9137C170.423 21.3955 170.338 21.9781 170.338 22.6617V22.9547C170.338 23.6774 170.432 24.2731 170.621 24.7418C170.81 25.2041 171.061 25.5459 171.373 25.7672C171.692 25.9886 172.047 26.0992 172.438 26.0992C172.939 26.0992 173.339 25.969 173.639 25.7086C173.945 25.4417 174.153 25.0673 174.264 24.5856H176.705L176.734 24.6442C176.624 25.3929 176.402 26.0406 176.07 26.5875C175.745 27.1344 175.283 27.5543 174.684 27.8473C174.091 28.1403 173.336 28.2867 172.418 28.2867ZM182.164 28.2867C181.181 28.2867 180.423 28.0166 179.889 27.4762C179.361 26.9358 179.098 26.0797 179.098 24.9078V19.5172H177.643V17.5153H179.098V14.9274H181.939V17.5153H183.883V19.5172H181.939V24.8981C181.939 25.3082 182.024 25.6012 182.193 25.777C182.369 25.9528 182.607 26.0406 182.906 26.0406C183.069 26.0406 183.238 26.0309 183.414 26.0114C183.596 25.9853 183.753 25.9593 183.883 25.9332L184.127 27.9938C183.834 28.0784 183.515 28.1468 183.17 28.1989C182.831 28.2574 182.496 28.2867 182.164 28.2867Z" fill="#6B6B6B"/>
<path d="M0.55 16.58L8.95 8.08202C9.41667 7.60991 9.96667 7.27269 10.6 7.07036C11.2333 6.86802 11.8833 6.8343 12.55 6.96919L16.4 7.67736C14.5667 9.76813 13.0833 11.7493 11.95 13.6209C10.8167 15.4925 9.76667 17.676 8.8 20.1714L0.55 16.58ZM10.65 21.0819C11.55 18.6202 12.6833 16.3018 14.05 14.1267C15.4167 11.9516 16.9667 9.98732 18.7 8.23377C21.6333 5.26622 24.9833 3.04899 28.75 1.58208C32.5167 0.115171 36.0333 -0.331647 39.3 0.241629C39.8667 3.5464 39.4333 7.10408 38 10.9147C36.5667 14.7253 34.3833 18.1144 31.45 21.0819C29.7167 22.8354 27.7667 24.4035 25.6 25.7861C23.4333 27.1687 21.1333 28.3153 18.7 29.2258L10.65 21.0819ZM24.95 14.759C25.6167 15.4334 26.4417 15.7707 27.425 15.7707C28.4083 15.7707 29.2333 15.4334 29.9 14.759C30.5667 14.0846 30.9 13.2499 30.9 12.2551C30.9 11.2603 30.5667 10.4257 29.9 9.75126C29.2333 9.07682 28.4083 8.7396 27.425 8.7396C26.4417 8.7396 25.6167 9.07682 24.95 9.75126C24.2833 10.4257 23.95 11.2603 23.95 12.2551C23.95 13.2499 24.2833 14.0846 24.95 14.759V14.759ZM23.2 39.4436L19.6 31.0974C22.0667 30.1194 24.225 29.0572 26.075 27.9106C27.925 26.7641 29.8833 25.2634 31.95 23.4087L32.65 27.3036C32.7833 27.9781 32.75 28.6441 32.55 29.3017C32.35 29.9592 32.0167 30.5241 31.55 30.9962L23.2 39.4436ZM3.75 27.6577C4.91667 26.4774 6.33333 25.8789 8 25.862C9.66667 25.8451 11.0833 26.4269 12.25 27.6071C13.4167 28.7874 14 30.2206 14 31.9067C14 33.5928 13.4167 35.026 12.25 36.2063C11.3833 37.083 10.0333 37.8081 8.2 38.3813C6.36667 38.9546 3.63333 39.4942 0 40C0.5 36.3243 1.03333 33.5675 1.6 31.7297C2.16667 29.8918 2.88333 28.5345 3.75 27.6577Z" fill="#6B6B6B"/>
</svg>
